<?xml version="1.0" encoding="utf-8"?>
<!-- Generator: Adobe Illustrator 24.1.3, SVG Export Plug-In . SVG Version: 6.00 Build 0)  -->
<svg version="1.1" id="Calque_1" xmlns="http://www.w3.org/2000/svg" xmlns:xlink="http://www.w3.org/1999/xlink" x="0px" y="0px"
	 viewBox="0 0 27.7 27.7" style="enable-background:new 0 0 27.7 27.7;" xml:space="preserve">
<style type="text/css">
	.st0{fill-rule:evenodd;clip-rule:evenodd;}
</style>
<g id="Page-1">
	<g id="Dribbble-Light-Preview" transform="translate(-220.000000, -6599.000000)">
		<g id="icons" transform="translate(56.000000, 160.000000)">
			<path id="arrow_x5F_right_x5F_up-_x5B__x23_358_x5D_" class="st0" d="M164.9,6454.2l7.9,7.9c0.4,0.4,0.9,0.3,1.3-0.1l0,0
				c0.4-0.4,0.5-0.9,0.1-1.3l-6-6c-0.3-0.3-0.1-0.9,0.4-0.9h21.9c0.5,0,1-0.4,1-1l0,0c0-0.5-0.4-1-1-1h-21.9c-0.3,0-0.5-0.2-0.5-0.5
				c0-0.1,0.1-0.3,0.1-0.4l6-6c0.4-0.4,0.4-1,0-1.4l0,0c-0.4-0.4-1-0.4-1.4,0l-7.8,7.8C164.1,6452.1,164.1,6453.4,164.9,6454.2
				L164.9,6454.2"/>
		</g>
	</g>
</g>
</svg>
