<svg width="1412" height="1412" viewBox="0 0 1412 1412" fill="none" xmlns="http://www.w3.org/2000/svg">
<path d="M82.2754 833.5V645.5L189.284 570.858L410.455 645.5V175L518.469 40.5H722.088L768.971 386.5L1117.83 478L1281.92 499.5L1352.25 798.5L1221.71 1280L1194.59 1363.5L601.663 1382L360.355 1057.5L82.2754 833.5Z" fill="white"/>
<path d="M1176.67 1269L1176.67 1301L588.333 1301L588.333 1269C588.333 1245.67 584.656 1223.17 577.302 1201.5C569.948 1179.83 558.61 1159 543.289 1139C527.968 1119 513.872 1102.33 501.003 1089C488.133 1075.67 471.586 1059.33 451.362 1040C449.523 1038.67 448.145 1037.5 447.225 1036.5C446.306 1035.5 444.927 1034.17 443.089 1032.5C441.25 1030.83 439.718 1029.33 438.492 1028C388.852 979.999 344.42 942.666 305.198 915.999C291.715 906.666 270.878 893.999 242.688 877.999C240.849 877.332 233.954 873.832 222.004 867.499C210.053 861.166 199.022 854.999 188.91 848.999C178.798 842.999 167.92 836.332 156.276 828.999C144.632 821.666 135.286 814.499 128.238 807.499C121.191 800.499 117.667 794.332 117.667 788.999C117.667 741.666 127.013 703.166 145.704 673.499C164.396 643.832 194.273 628.999 235.333 628.999C261.686 628.999 287.579 633.999 313.012 643.999C338.445 653.999 359.282 664.999 375.522 676.999C391.763 688.999 408.616 699.999 426.082 709.999C443.548 719.999 458.41 724.999 470.667 724.999L470.667 256C470.667 222.667 482.464 193 506.059 167C529.653 141 557.078 128 588.333 128C620.201 128 647.779 140.667 671.068 166C694.356 191.333 706 221.333 706 256L706 479.999C716.418 469.999 730.973 461.666 749.665 454.999C768.357 448.332 785.364 444.999 800.685 444.999C842.971 444.999 879.436 462.666 910.078 497.999C929.689 485.999 950.832 479.999 973.508 479.999C996.183 479.999 1018.71 485.832 1041.07 497.499C1063.44 509.166 1079.53 524.999 1089.34 544.999C1104.04 542.333 1121.2 540.999 1140.82 540.999C1192.91 540.999 1231.52 557.166 1256.64 589.499C1281.77 621.832 1294.33 666.999 1294.33 724.999C1294.33 780.999 1284.53 841.999 1264.92 907.999C1245.31 973.999 1225.69 1038.67 1206.08 1102C1186.47 1165.33 1176.67 1221 1176.67 1269ZM588.333 1412L1176.67 1412C1209.15 1412 1236.88 1399.5 1259.86 1374.5C1282.84 1349.5 1294.33 1319.33 1294.33 1284L1294.33 1269C1294.33 1229.67 1312.41 1155.33 1348.57 1046C1390.86 919.332 1412 813.666 1412 728.999C1412 634.332 1388.25 557.666 1340.76 498.999C1293.26 440.332 1226.61 411.332 1140.82 411.999L1136.22 412.999C1089.64 372.332 1035.1 351.999 972.588 351.999C959.106 351.999 945.93 352.999 933.06 354.999C898.128 332.999 861.663 320.665 823.667 317.999L823.667 256C823.667 186 800.378 125.833 753.802 75.5C707.226 25.1666 651.763 -8.65153e-06 587.414 -5.83875e-06C524.291 -3.07954e-06 469.441 25.3333 422.865 76C376.288 126.667 353 186.667 353 256L353 522.999C316.229 508.333 277.007 500.999 235.333 500.999C160.566 500.999 102.652 528.166 61.5912 582.499C20.5304 636.832 3.08456e-05 705.666 3.44882e-05 788.999C3.55956e-05 814.332 5.36245 837.499 16.0873 858.499C26.8121 879.499 41.9801 897.832 61.5912 913.499C81.2023 929.166 100.507 942.666 119.505 953.999C138.504 965.332 160.566 977.666 185.693 990.999C210.819 1004.33 229.818 1015.33 242.688 1024C276.394 1047.33 315.923 1080.67 361.273 1124C363.112 1125.33 368.321 1130 376.901 1138C385.481 1146 392.069 1152.33 396.665 1157C401.262 1161.67 407.85 1168.5 416.43 1177.5C425.01 1186.5 431.904 1194.5 437.113 1201.5C442.323 1208.5 447.838 1216 453.66 1224C459.482 1232 463.772 1239.83 466.53 1247.5C469.288 1255.17 470.667 1262.33 470.667 1269L470.667 1284C470.667 1319.33 482.158 1349.5 505.139 1374.5C528.121 1399.5 555.852 1412 588.333 1412Z" fill="#316BFF"/>
<path d="M717.031 541V715" stroke="#316BFF" stroke-width="44" stroke-linecap="round"/>
<path d="M914.674 576V750" stroke="#316BFF" stroke-width="44" stroke-linecap="round"/>
<path d="M1097.61 627V801" stroke="#316BFF" stroke-width="44" stroke-linecap="round"/>
</svg>
