<?xml version="1.0" standalone="no"?><svg xmlns:xlink="http://www.w3.org/1999/xlink" xmlns="http://www.w3.org/2000/svg" viewBox="0 0 700 466.66666666666663" preserveAspectRatio="xMaxYMax slice"><g transform="scale(0.8130081300813008)"><rect x="0" y="0" width="861" height="574" fill="#ffffff"/><circle cx="47.835" cy="47.835" r="9.565" fill="#3ce7f0"/><circle cx="143.495" cy="47.835" r="9.565" fill="#fffefd"/><circle cx="239.165" cy="47.835" r="9.565" fill="#f58055"/><circle cx="334.835" cy="47.835" r="9.565" fill="#7feff5"/><circle cx="430.495" cy="47.835" r="9.565" fill="#fefda5"/><circle cx="526.1650000000001" cy="47.835" r="9.565" fill="#1ae2ed"/><circle cx="621.835" cy="47.835" r="9.565" fill="#f57d51"/><circle cx="717.495" cy="47.835" r="9.565" fill="#6fedf4"/><circle cx="813.1650000000001" cy="47.835" r="9.565" fill="#fefc9a"/><circle cx="47.835" cy="143.495" r="9.565" fill="#fffff2"/><circle cx="143.495" cy="143.495" r="9.565" fill="#fefda5"/><circle cx="239.165" cy="143.495" r="9.565" fill="#fefc8c"/><circle cx="334.835" cy="143.495" r="9.565" fill="#f9b69d"/><circle cx="430.495" cy="143.495" r="9.565" fill="#71edf4"/><circle cx="526.1650000000001" cy="143.495" r="9.565" fill="#c1f7fa"/><circle cx="621.835" cy="143.495" r="9.565" fill="#fdfa45"/><circle cx="717.495" cy="143.495" r="9.565" fill="#f6906a"/><circle cx="813.1650000000001" cy="143.495" r="9.565" fill="#fbcdbd"/><circle cx="47.835" cy="239.165" r="9.565" fill="#42e7f0"/><circle cx="143.495" cy="239.165" r="9.565" fill="#aef5f9"/><circle cx="239.165" cy="239.165" r="9.565" fill="#effdfe"/><circle cx="334.835" cy="239.165" r="9.565" fill="#e4fcfd"/><circle cx="430.495" cy="239.165" r="9.565" fill="#f46e3d"/><circle cx="526.1650000000001" cy="239.165" r="9.565" fill="#0ee1ec"/><circle cx="621.835" cy="239.165" r="9.565" fill="#fefb6c"/><circle cx="717.495" cy="239.165" r="9.565" fill="#fffffb"/><circle cx="813.1650000000001" cy="239.165" r="9.565" fill="#1de3ed"/><circle cx="47.835" cy="334.835" r="9.565" fill="#6bedf3"/><circle cx="143.495" cy="334.835" r="9.565" fill="#fefc9c"/><circle cx="239.165" cy="334.835" r="9.565" fill="#31e5ef"/><circle cx="334.835" cy="334.835" r="9.565" fill="#fdfa3a"/><circle cx="430.495" cy="334.835" r="9.565" fill="#aef5f9"/><circle cx="526.1650000000001" cy="334.835" r="9.565" fill="#f8a98c"/><circle cx="621.835" cy="334.835" r="9.565" fill="#fffed2"/><circle cx="717.495" cy="334.835" r="9.565" fill="#f36936"/><circle cx="813.1650000000001" cy="334.835" r="9.565" fill="#fdfb4f"/><circle cx="47.835" cy="430.495" r="9.565" fill="#f57a4d"/><circle cx="143.495" cy="430.495" r="9.565" fill="#baf6fa"/><circle cx="239.165" cy="430.495" r="9.565" fill="#fefdab"/><circle cx="334.835" cy="430.495" r="9.565" fill="#fefda8"/><circle cx="430.495" cy="430.495" r="9.565" fill="#f14c10"/><circle cx="526.1650000000001" cy="430.495" r="9.565" fill="#abf4f8"/><circle cx="621.835" cy="430.495" r="9.565" fill="#ffffff"/><circle cx="717.495" cy="430.495" r="9.565" fill="#13e2ec"/><circle cx="813.1650000000001" cy="430.495" r="9.565" fill="#f9b79e"/><circle cx="47.835" cy="526.1650000000001" r="9.565" fill="#a5f4f8"/><circle cx="143.495" cy="526.1650000000001" r="9.565" fill="#fdfa4a"/><circle cx="239.165" cy="526.1650000000001" r="9.565" fill="#fefb74"/><circle cx="334.835" cy="526.1650000000001" r="9.565" fill="#fdece5"/><circle cx="430.495" cy="526.1650000000001" r="9.565" fill="#f25217"/><circle cx="526.1650000000001" cy="526.1650000000001" r="9.565" fill="#f6875f"/><circle cx="621.835" cy="526.1650000000001" r="9.565" fill="#5cebf2"/><circle cx="717.495" cy="526.1650000000001" r="9.565" fill="#fffff7"/><circle cx="813.1650000000001" cy="526.1650000000001" r="9.565" fill="#1be3ed"/></g></svg>