<?xml version="1.0" encoding="utf-8"?>
<!-- Generator: Adobe Illustrator 25.2.2, SVG Export Plug-In . SVG Version: 6.00 Build 0)  -->
<svg version="1.1" id="Calque_1" xmlns="http://www.w3.org/2000/svg" xmlns:xlink="http://www.w3.org/1999/xlink" x="0px" y="0px"
	 width="1920.8px" height="1001.6px" viewBox="0 0 1920.8 1001.6" style="enable-background:new 0 0 1920.8 1001.6;"
	 xml:space="preserve">
<style type="text/css">
	.st0{fill:#91D300;}
	.st1{fill:#FFD503;}
	.st2{fill:#FF0049;}
	.st3{fill:#00B7FF;}
	.st4{enable-background:new    ;}
	.st5{fill:#020203;}
</style>
<g id="Calque_1_1_">
	<polygon class="st0" points="420.2,105.7 107.8,363.9 420.2,363.9 	"/>
	<polygon class="st1" points="732.5,105.7 420.2,363.9 732.5,363.9 	"/>
	<rect x="420.2" y="676.3" class="st2" width="312.4" height="154.8"/>
	<circle class="st3" cx="576.3" cy="520.1" r="156.2"/>
	<path class="st0" d="M265.3,676.3c-85.5,0-154.8,69.3-154.8,154.8h309.6C420.2,745.6,350.8,676.3,265.3,676.3
		C265.4,676.3,265.3,676.3,265.3,676.3z"/>
	<rect x="107.8" y="363.9" class="st2" width="186.2" height="179.9"/>
	<polygon class="st1" points="294,363.9 294,543.8 107.8,543.8 107.8,676.3 420.2,676.3 420.2,363.9 	"/>
	<polygon points="896.2,298.3 864.7,298.3 864.7,422.4 815.1,422.4 815.1,298.3 783.6,298.3 783.6,453.9 896.2,453.9 	"/>
	<rect x="1061.6" y="298.3" width="31.5" height="155.6"/>
	<polygon points="1151,329.8 1200.6,329.8 1200.6,453.9 1232.1,453.9 1232.1,298.3 1119.5,298.3 1119.5,453.9 1151,453.9 	"/>
	<polygon points="1035.2,360.3 954.1,360.3 954.1,329.8 1035.2,329.8 1035.2,298.3 922.6,298.3 922.6,391.8 1003.7,391.8 
		1003.7,422.4 922.6,422.4 922.6,453.9 1035.2,453.9 	"/>
	<polygon points="1371.2,422.4 1290.1,422.4 1290.1,391.8 1371.2,391.8 1371.2,360.3 1290.1,360.3 1290.1,329.8 1371.2,329.8 
		1371.2,298.3 1258.6,298.3 1258.6,453.9 1371.2,453.9 	"/>
	<polygon points="1820.9,708.3 1820.9,676.8 1708.3,676.8 1708.3,832.4 1820.9,832.4 1820.9,800.9 1739.8,800.9 1739.8,770.3 
		1820.9,770.3 1820.9,738.8 1739.8,738.8 1739.8,708.3 	"/>
	<rect x="1200.6" y="676.8" width="31.5" height="155.6"/>
	<rect x="1536.6" y="676.8" width="31.5" height="155.6"/>
	<polygon points="1339.7,765.5 1289.9,677.4 1289.5,676.8 1258.6,676.8 1258.6,832.4 1290.1,832.4 1290.1,743.6 1339.8,831.7 
		1340.2,832.4 1371.2,832.4 1371.2,676.8 1339.7,676.8 	"/>
	<path d="M1397.6,708.3h81.1v30.6h-81.1v93.6h112.6V676.8h-112.6V708.3z M1478.7,800.9h-49.6v-30.6h49.6V800.9z"/>
	<path d="M783.6,832.4h112.6V676.8H783.6V832.4z M815.1,708.3h49.6v92.6h-49.6V708.3z"/>
	<path d="M1142.7,738.4h-81.1v94h112.6V676.8h-31.5V738.4z M1142.7,800.9h-49.6v-31h49.6V800.9z"/>
	<path d="M1035.2,770.3v-93.6H922.6v155.6h31.5v-62.1h20.7l28.6,62.1h31.8l-28.6-62.1L1035.2,770.3L1035.2,770.3z M1003.7,738.8
		h-49.6v-30.6h49.6V738.8z"/>
	<polygon points="1594.5,832.4 1626,832.4 1626,708.3 1681.9,708.3 1681.9,676.8 1594.5,676.8 	"/>
	<polygon points="1094.8,643.4 1126.3,643.4 1126.3,519.2 1166.9,519.2 1166.9,487.7 1054.3,487.7 1054.3,519.2 1094.8,519.2 	"/>
	<path d="M1440,643.4V487.7h-112.6v155.6h31.5v-62.1h49.6v62.1L1440,643.4L1440,643.4z M1358.9,549.8v-30.6h49.6v30.6H1358.9z"/>
	<path d="M783.6,643.4h112.6v-31.5h-81.1v-30.6h81.1v-93.6H783.6V643.4z M815.1,519.2h49.6v30.6h-49.6V519.2z"/>
	<path d="M1301.1,643.4l-28.6-62.1h28.6v-93.6h-112.6v155.6h31.5v-62.1h20.8l28.6,62.1L1301.1,643.4L1301.1,643.4z M1219.9,549.8
		v-30.6h49.6v30.6H1219.9z"/>
	<polygon points="1002.9,489 978.9,534.4 954.9,489 921.3,489 962.1,566 921.8,642.1 955.4,642.1 978.9,597.7 1002.4,642.1 
		1036,642.1 995.7,566 1036.5,489 	"/>
</g>
<g id="Calque_2_1_">
</g>
<g id="Calque_3">
	<g class="st4">
		<path class="st5" d="M113.1,917.4V863h35.7v11.6h-21.8v9.7h18.7v11h-18.7v10.4h23v11.6H113.1z"/>
		<path class="st5" d="M206.2,918.1l-27.9-24.6l-4.4-3.6v27.4h-13.5v-55.2h0.6l27.7,24.5c1.5,1.2,2.9,2.6,4.5,3.7V863h13.6v55.2
			H206.2z"/>
		<path class="st5" d="M236.3,917.4V863h18.2c19,0,30.8,11.5,30.8,27.2c0,15.8-11.8,27.2-30.8,27.2H236.3z M250.1,874.6v31.1h4.3
			c11,0,16.9-7.1,16.9-15.6c0-8.5-5.9-15.6-17-15.6H250.1z"/>
		<path class="st5" d="M295.9,917.4V863h13.8v54.4H295.9z"/>
		<path class="st5" d="M349.7,918.4c-17.6,0-29.6-12.4-29.6-28.3c0-15.7,12.1-28.3,29-28.3c8,0,13.8,1.9,17.5,3.6v12.6
			c-3.5-1.6-8.8-3.6-16.2-3.6c-10.4,0-16.3,7.3-16.3,15.6c0,8.5,5.8,15.8,15.6,15.8c2,0,4.2-0.3,5.7-0.7v-13.5h13.2v22.5
			C363.4,916.9,356.3,918.4,349.7,918.4z"/>
		<path class="st5" d="M380.1,917.4V863H394v54.4H380.1z"/>
		<path class="st5" d="M431.4,874.6v42.8h-13.9v-42.8h-14.5V863h42.9v11.6H431.4z"/>
		<path class="st5" d="M471.8,862.2h0.7l27.1,55.2h-14.4l-3.9-8.3H463l-3.8,8.3h-14.4L471.8,862.2z M477.3,899.8
			c-1.9-4.3-4.1-9.7-5.1-13c-0.8,1.8-3.7,9.5-5.2,13H477.3z"/>
		<path class="st5" d="M507.2,917.4V863h13.8v42.8h19.6v11.6H507.2z"/>
		<path class="st5" d="M566.3,917.4V863h18.2c19,0,30.8,11.5,30.8,27.2c0,15.8-11.8,27.2-30.8,27.2H566.3z M580.2,874.6v31.1h4.3
			c11,0,16.9-7.1,16.9-15.6c0-8.5-5.9-15.6-17-15.6H580.2z"/>
		<path class="st5" d="M672.7,897.2c0,12.8-8.7,21.2-23.7,21.2c-14.9,0-23.7-8.5-23.7-21.2V863h13.8v32.7c0,6.4,3.4,10.1,9.8,10.1
			c6.4,0,9.8-3.7,9.8-10.1V863h13.9V897.2z"/>
		<path class="st5" d="M699,864.6c2-1.3,6.7-2.7,12.2-2.7c13.2,0,21.2,8.1,21.2,19.7c0,9.4-6.4,16.8-12.2,24.2h14.6v11.6h-38.9
			c9.4-11.4,18.9-21.8,21.6-30.5c0.8-2,1-3.9,0.8-5.7c-0.4-4.2-3.7-6.7-8.9-6.7c-4.4,0-8.5,1.7-10.4,2.9V864.6z"/>
		<path class="st5" d="M742.3,864.6c2-1.3,6.7-2.7,12.2-2.7c13.2,0,21.2,8.1,21.2,19.7c0,9.4-6.4,16.8-12.2,24.2h14.6v11.6h-38.9
			c9.4-11.4,18.9-21.8,21.6-30.5c0.8-2,1-3.9,0.8-5.7c-0.4-4.2-3.7-6.7-8.9-6.7c-4.4,0-8.5,1.7-10.4,2.9V864.6z"/>
		<path class="st5" d="M825.6,862.2h0.7l27.1,55.2h-14.4l-3.9-8.3h-18.3l-3.8,8.3h-14.4L825.6,862.2z M831.1,899.8
			c-1.9-4.3-4.1-9.7-5.1-13c-0.8,1.8-3.7,9.5-5.2,13H831.1z"/>
		<path class="st5" d="M905.1,897.2c0,12.8-8.7,21.2-23.7,21.2c-14.9,0-23.7-8.5-23.7-21.2V863h13.8v32.7c0,6.4,3.4,10.1,9.8,10.1
			c6.4,0,9.8-3.7,9.8-10.1V863h13.9V897.2z"/>
		<path class="st5" d="M931.4,864.6c2-1.3,6.7-2.7,12.2-2.7c13.2,0,21.2,8.1,21.2,19.7c0,9.4-6.4,16.8-12.2,24.2h14.6v11.6h-38.9
			c9.4-11.4,18.9-21.8,21.6-30.5c0.8-2,1-3.9,0.8-5.7c-0.4-4.2-3.7-6.7-8.9-6.7c-4.4,0-8.5,1.7-10.4,2.9V864.6z"/>
		<path class="st5" d="M1015.7,899.2c0,11-8.8,19.2-20.6,19.2c-11.6,0-20.2-8.3-20.2-19.9c0-14.4,12.2-29.2,20.8-35.6h16.9
			c-7.9,5.7-14.4,12.5-18.8,18.7c0.6-0.3,2-0.8,3.6-0.8C1008.4,880.8,1015.7,889.7,1015.7,899.2z M1003.2,899.2
			c0-4.7-3.4-8.2-8.2-8.2c-4.7,0-8.1,3.5-8.1,8.1c0,4.8,3.4,8.2,8.1,8.2C999.8,907.4,1003.2,903.9,1003.2,899.2z"/>
		<path class="st5" d="M1087.3,918.1l-27.9-24.6l-4.4-3.6v27.4h-13.5v-55.2h0.6l27.7,24.5c1.5,1.2,2.9,2.6,4.5,3.7V863h13.6v55.2
			H1087.3z"/>
		<path class="st5" d="M1127,861.9c16.8,0,28.8,12.6,28.8,28.3c0,15.8-11.9,28.3-28.8,28.3c-16.8,0-28.8-12.5-28.8-28.3
			C1098.2,874.6,1110.2,861.9,1127,861.9z M1127,905.8c8.8,0,14.8-7.2,14.8-15.6c0-8.4-6-15.6-14.8-15.6c-8.8,0-14.9,7.3-14.9,15.6
			C1112.1,898.6,1118.2,905.8,1127,905.8z"/>
		<path class="st5" d="M1185.3,918.1h-0.6l-27.7-55.2h15.2l7,15c2.3,5.1,4.5,10,5.8,13.9c0.8-1.8,4.2-10.2,5.9-13.9l7-15h15.1
			L1185.3,918.1z"/>
		<path class="st5" d="M1220.1,917.4V863h35.7v11.6h-21.8v9.7h18.7v11h-18.7v10.4h23v11.6H1220.1z"/>
		<path class="st5" d="M1284.1,892.7l-3.6-2.9v27.7h-13.2v-55.2h0.3l26.5,24.1l26.5-24.1h0.4v55.2h-13.3v-27.7l-3.5,2.9
			c-3.4,3.2-6.7,6.5-10.1,9.7C1290.8,899.2,1287.5,895.9,1284.1,892.7z"/>
		<path class="st5" d="M1376.2,901.2c0,11-9.1,16.2-22.1,16.2h-19.4V863h18.1c11.9,0,21.4,4.8,21.4,15.5c0,5.4-3.2,8.8-7,10.4
			C1371.8,890.2,1376.2,894.9,1376.2,901.2z M1353.4,885.2c1.5,0,2.9-0.2,4.2-0.8c1.6-0.7,2.6-2.3,2.6-4.7c0-4-2.9-5.7-6.7-5.7h-5.7
			v11.2H1353.4z M1347.8,906.3h7c3.7,0,7-1.8,7-6c0-4.3-3.2-6.1-6.7-6.1h-7.3V906.3z"/>
		<path class="st5" d="M1406.5,863c13,0,22,6.3,22,18.5c0,7.9-4,13.1-10,15.7l11,20.2h-14.4l-8.8-17.9h-6v17.9h-13.5V863H1406.5z
			 M1400.3,874.6v13.8h7c4.2,0,7.3-2,7.3-7c0-4.8-3.2-6.9-7.4-6.9H1400.3z"/>
		<path class="st5" d="M1439.7,917.4V863h35.7v11.6h-21.8v9.7h18.7v11h-18.7v10.4h23v11.6H1439.7z"/>
		<path class="st5" d="M1500.4,864.6c2-1.3,6.7-2.7,12.2-2.7c13.2,0,21.2,8.1,21.2,19.7c0,9.4-6.4,16.8-12.2,24.2h14.6v11.6h-38.9
			c9.4-11.4,18.9-21.8,21.6-30.5c0.8-2,1-3.9,0.8-5.7c-0.4-4.2-3.7-6.7-8.9-6.7c-4.4,0-8.5,1.7-10.4,2.9V864.6z"/>
		<path class="st5" d="M1565.9,861.9c14.1,0,22.8,12.6,22.8,28.3c0,15.6-8.8,28.3-22.8,28.3s-22.8-12.6-22.8-28.3
			C1543.1,874.5,1551.9,861.9,1565.9,861.9z M1565.9,905.8c5.7,0,8.8-6.3,8.8-15.6c0-9.3-3.1-15.6-8.8-15.6s-8.8,6.3-8.8,15.6
			C1557.1,899.5,1560.2,905.8,1565.9,905.8z"/>
		<path class="st5" d="M1595.9,864.6c2-1.3,6.7-2.7,12.2-2.7c13.2,0,21.2,8.1,21.2,19.7c0,9.4-6.4,16.8-12.2,24.2h14.6v11.6h-38.9
			c9.4-11.4,18.9-21.8,21.6-30.5c0.8-2,1-3.9,0.8-5.7c-0.4-4.2-3.7-6.7-8.9-6.7c-4.4,0-8.5,1.7-10.4,2.9V864.6z"/>
		<path class="st5" d="M1658.6,863v54.4h-13.8v-42.8h-7.3V863H1658.6z"/>
	</g>
	<g class="st4">
		<path class="st5" d="M113.1,919.8v-54.4h35.7V877h-21.8v9.7h18.7v11h-18.7v10.4h23v11.6H113.1z"/>
		<path class="st5" d="M206.2,920.6L178.3,896l-4.4-3.6v27.4h-13.5v-55.2h0.6l27.7,24.5c1.5,1.2,2.9,2.6,4.5,3.7v-27.4h13.6v55.2
			H206.2z"/>
		<path class="st5" d="M236.3,919.8v-54.4h18.2c19,0,30.8,11.5,30.8,27.2c0,15.8-11.8,27.2-30.8,27.2H236.3z M250.1,877v31.1h4.3
			c11,0,16.9-7.1,16.9-15.6c0-8.5-5.9-15.6-17-15.6H250.1z"/>
		<path class="st5" d="M295.9,919.8v-54.4h13.8v54.4H295.9z"/>
		<path class="st5" d="M349.7,920.9c-17.6,0-29.6-12.4-29.6-28.3c0-15.7,12.1-28.3,29-28.3c8,0,13.8,1.9,17.5,3.6v12.6
			c-3.5-1.6-8.8-3.6-16.2-3.6c-10.4,0-16.3,7.3-16.3,15.6c0,8.5,5.8,15.8,15.6,15.8c2,0,4.2-0.3,5.7-0.7v-13.5h13.2v22.5
			C363.4,919.4,356.3,920.9,349.7,920.9z"/>
		<path class="st5" d="M380.1,919.8v-54.4H394v54.4H380.1z"/>
		<path class="st5" d="M431.4,877v42.8h-13.9V877h-14.5v-11.6h42.9V877H431.4z"/>
		<path class="st5" d="M471.8,864.7h0.7l27.1,55.2h-14.4l-3.9-8.3H463l-3.8,8.3h-14.4L471.8,864.7z M477.3,902.2
			c-1.9-4.3-4.1-9.7-5.1-13c-0.8,1.8-3.7,9.5-5.2,13H477.3z"/>
		<path class="st5" d="M507.2,919.8v-54.4h13.8v42.8h19.6v11.6H507.2z"/>
		<path class="st5" d="M566.3,919.8v-54.4h18.2c19,0,30.8,11.5,30.8,27.2c0,15.8-11.8,27.2-30.8,27.2H566.3z M580.2,877v31.1h4.3
			c11,0,16.9-7.1,16.9-15.6c0-8.5-5.9-15.6-17-15.6H580.2z"/>
		<path class="st5" d="M672.7,899.6c0,12.8-8.7,21.2-23.7,21.2c-14.9,0-23.7-8.5-23.7-21.2v-34.2h13.8v32.7c0,6.4,3.4,10.1,9.8,10.1
			c6.4,0,9.8-3.7,9.8-10.1v-32.7h13.9V899.6z"/>
		<path class="st5" d="M699,867.1c2-1.3,6.7-2.7,12.2-2.7c13.2,0,21.2,8.1,21.2,19.7c0,9.4-6.4,16.8-12.2,24.2h14.6v11.6h-38.9
			c9.4-11.4,18.9-21.8,21.6-30.5c0.8-2,1-3.9,0.8-5.7c-0.4-4.2-3.7-6.7-8.9-6.7c-4.4,0-8.5,1.7-10.4,2.9V867.1z"/>
		<path class="st5" d="M742.3,867.1c2-1.3,6.7-2.7,12.2-2.7c13.2,0,21.2,8.1,21.2,19.7c0,9.4-6.4,16.8-12.2,24.2h14.6v11.6h-38.9
			c9.4-11.4,18.9-21.8,21.6-30.5c0.8-2,1-3.9,0.8-5.7c-0.4-4.2-3.7-6.7-8.9-6.7c-4.4,0-8.5,1.7-10.4,2.9V867.1z"/>
		<path class="st5" d="M825.6,864.7h0.7l27.1,55.2h-14.4l-3.9-8.3h-18.3l-3.8,8.3h-14.4L825.6,864.7z M831.1,902.2
			c-1.9-4.3-4.1-9.7-5.1-13c-0.8,1.8-3.7,9.5-5.2,13H831.1z"/>
		<path class="st5" d="M905.1,899.6c0,12.8-8.7,21.2-23.7,21.2c-14.9,0-23.7-8.5-23.7-21.2v-34.2h13.8v32.7c0,6.4,3.4,10.1,9.8,10.1
			c6.4,0,9.8-3.7,9.8-10.1v-32.7h13.9V899.6z"/>
		<path class="st5" d="M931.4,867.1c2-1.3,6.7-2.7,12.2-2.7c13.2,0,21.2,8.1,21.2,19.7c0,9.4-6.4,16.8-12.2,24.2h14.6v11.6h-38.9
			c9.4-11.4,18.9-21.8,21.6-30.5c0.8-2,1-3.9,0.8-5.7c-0.4-4.2-3.7-6.7-8.9-6.7c-4.4,0-8.5,1.7-10.4,2.9V867.1z"/>
		<path class="st5" d="M1015.7,901.7c0,11-8.8,19.2-20.6,19.2c-11.6,0-20.2-8.3-20.2-19.9c0-14.4,12.2-29.2,20.8-35.6h16.9
			c-7.9,5.7-14.4,12.5-18.8,18.7c0.6-0.3,2-0.8,3.6-0.8C1008.4,883.2,1015.7,892.2,1015.7,901.7z M1003.2,901.7
			c0-4.7-3.4-8.2-8.2-8.2c-4.7,0-8.1,3.5-8.1,8.1c0,4.8,3.4,8.2,8.1,8.2C999.8,909.8,1003.2,906.4,1003.2,901.7z"/>
		<path class="st5" d="M1087.3,920.6l-27.9-24.6l-4.4-3.6v27.4h-13.5v-55.2h0.6l27.7,24.5c1.5,1.2,2.9,2.6,4.5,3.7v-27.4h13.6v55.2
			H1087.3z"/>
		<path class="st5" d="M1127,864.4c16.8,0,28.8,12.6,28.8,28.3c0,15.8-11.9,28.3-28.8,28.3c-16.8,0-28.8-12.5-28.8-28.3
			C1098.2,877,1110.2,864.4,1127,864.4z M1127,908.3c8.8,0,14.8-7.2,14.8-15.6c0-8.4-6-15.6-14.8-15.6c-8.8,0-14.9,7.3-14.9,15.6
			C1112.1,901.1,1118.2,908.3,1127,908.3z"/>
		<path class="st5" d="M1185.3,920.6h-0.6l-27.7-55.2h15.2l7,15c2.3,5.1,4.5,10,5.8,13.9c0.8-1.8,4.2-10.2,5.9-13.9l7-15h15.1
			L1185.3,920.6z"/>
		<path class="st5" d="M1220.1,919.8v-54.4h35.7V877h-21.8v9.7h18.7v11h-18.7v10.4h23v11.6H1220.1z"/>
		<path class="st5" d="M1284.1,895.1l-3.6-2.9v27.7h-13.2v-55.2h0.3l26.5,24.1l26.5-24.1h0.4v55.2h-13.3v-27.7l-3.5,2.9
			c-3.4,3.2-6.7,6.5-10.1,9.7C1290.8,901.6,1287.5,898.4,1284.1,895.1z"/>
		<path class="st5" d="M1376.2,903.7c0,11-9.1,16.2-22.1,16.2h-19.4v-54.4h18.1c11.9,0,21.4,4.8,21.4,15.5c0,5.4-3.2,8.8-7,10.4
			C1371.8,892.6,1376.2,897.4,1376.2,903.7z M1353.4,887.6c1.5,0,2.9-0.2,4.2-0.8c1.6-0.7,2.6-2.3,2.6-4.7c0-4-2.9-5.7-6.7-5.7h-5.7
			v11.2H1353.4z M1347.8,908.8h7c3.7,0,7-1.8,7-6c0-4.3-3.2-6.1-6.7-6.1h-7.3V908.8z"/>
		<path class="st5" d="M1406.5,865.4c13,0,22,6.3,22,18.5c0,7.9-4,13.1-10,15.7l11,20.2h-14.4l-8.8-17.9h-6v17.9h-13.5v-54.4H1406.5
			z M1400.3,877v13.8h7c4.2,0,7.3-2,7.3-7c0-4.8-3.2-6.9-7.4-6.9H1400.3z"/>
		<path class="st5" d="M1439.7,919.8v-54.4h35.7V877h-21.8v9.7h18.7v11h-18.7v10.4h23v11.6H1439.7z"/>
		<path class="st5" d="M1500.4,867.1c2-1.3,6.7-2.7,12.2-2.7c13.2,0,21.2,8.1,21.2,19.7c0,9.4-6.4,16.8-12.2,24.2h14.6v11.6h-38.9
			c9.4-11.4,18.9-21.8,21.6-30.5c0.8-2,1-3.9,0.8-5.7c-0.4-4.2-3.7-6.7-8.9-6.7c-4.4,0-8.5,1.7-10.4,2.9V867.1z"/>
		<path class="st5" d="M1565.9,864.4c14.1,0,22.8,12.6,22.8,28.3c0,15.6-8.8,28.3-22.8,28.3s-22.8-12.6-22.8-28.3
			C1543.1,877,1551.9,864.4,1565.9,864.4z M1565.9,908.3c5.7,0,8.8-6.3,8.8-15.6c0-9.3-3.1-15.6-8.8-15.6s-8.8,6.3-8.8,15.6
			C1557.1,901.9,1560.2,908.3,1565.9,908.3z"/>
		<path class="st5" d="M1595.9,867.1c2-1.3,6.7-2.7,12.2-2.7c13.2,0,21.2,8.1,21.2,19.7c0,9.4-6.4,16.8-12.2,24.2h14.6v11.6h-38.9
			c9.4-11.4,18.9-21.8,21.6-30.5c0.8-2,1-3.9,0.8-5.7c-0.4-4.2-3.7-6.7-8.9-6.7c-4.4,0-8.5,1.7-10.4,2.9V867.1z"/>
		<path class="st5" d="M1658.6,865.4v54.4h-13.8V877h-7.3v-11.6H1658.6z"/>
	</g>
	<g class="st4">
		<path class="st5" d="M113.1,917.4V863h35.7v11.6h-21.8v9.7h18.7v11h-18.7v10.4h23v11.6H113.1z"/>
		<path class="st5" d="M206.2,918.1l-27.9-24.6l-4.4-3.6v27.4h-13.5v-55.2h0.6l27.7,24.5c1.5,1.2,2.9,2.6,4.5,3.7V863h13.6v55.2
			H206.2z"/>
		<path class="st5" d="M236.3,917.4V863h18.2c19,0,30.8,11.5,30.8,27.2c0,15.8-11.8,27.2-30.8,27.2H236.3z M250.1,874.6v31.1h4.3
			c11,0,16.9-7.1,16.9-15.6c0-8.5-5.9-15.6-17-15.6H250.1z"/>
		<path class="st5" d="M295.9,917.4V863h13.8v54.4H295.9z"/>
		<path class="st5" d="M349.7,918.4c-17.6,0-29.6-12.4-29.6-28.3c0-15.7,12.1-28.3,29-28.3c8,0,13.8,1.9,17.5,3.6v12.6
			c-3.5-1.6-8.8-3.6-16.2-3.6c-10.4,0-16.3,7.3-16.3,15.6c0,8.5,5.8,15.8,15.6,15.8c2,0,4.2-0.3,5.7-0.7v-13.5h13.2v22.5
			C363.4,916.9,356.3,918.4,349.7,918.4z"/>
		<path class="st5" d="M380.1,917.4V863H394v54.4H380.1z"/>
		<path class="st5" d="M431.4,874.6v42.8h-13.9v-42.8h-14.5V863h42.9v11.6H431.4z"/>
		<path class="st5" d="M471.8,862.2h0.7l27.1,55.2h-14.4l-3.9-8.3H463l-3.8,8.3h-14.4L471.8,862.2z M477.3,899.8
			c-1.9-4.3-4.1-9.7-5.1-13c-0.8,1.8-3.7,9.5-5.2,13H477.3z"/>
		<path class="st5" d="M507.2,917.4V863h13.8v42.8h19.6v11.6H507.2z"/>
		<path class="st5" d="M566.3,917.4V863h18.2c19,0,30.8,11.5,30.8,27.2c0,15.8-11.8,27.2-30.8,27.2H566.3z M580.2,874.6v31.1h4.3
			c11,0,16.9-7.1,16.9-15.6c0-8.5-5.9-15.6-17-15.6H580.2z"/>
		<path class="st5" d="M672.7,897.2c0,12.8-8.7,21.2-23.7,21.2c-14.9,0-23.7-8.5-23.7-21.2V863h13.8v32.7c0,6.4,3.4,10.1,9.8,10.1
			c6.4,0,9.8-3.7,9.8-10.1V863h13.9V897.2z"/>
		<path class="st5" d="M699,864.6c2-1.3,6.7-2.7,12.2-2.7c13.2,0,21.2,8.1,21.2,19.7c0,9.4-6.4,16.8-12.2,24.2h14.6v11.6h-38.9
			c9.4-11.4,18.9-21.8,21.6-30.5c0.8-2,1-3.9,0.8-5.7c-0.4-4.2-3.7-6.7-8.9-6.7c-4.4,0-8.5,1.7-10.4,2.9V864.6z"/>
		<path class="st5" d="M742.3,864.6c2-1.3,6.7-2.7,12.2-2.7c13.2,0,21.2,8.1,21.2,19.7c0,9.4-6.4,16.8-12.2,24.2h14.6v11.6h-38.9
			c9.4-11.4,18.9-21.8,21.6-30.5c0.8-2,1-3.9,0.8-5.7c-0.4-4.2-3.7-6.7-8.9-6.7c-4.4,0-8.5,1.7-10.4,2.9V864.6z"/>
		<path class="st5" d="M825.6,862.2h0.7l27.1,55.2h-14.4l-3.9-8.3h-18.3l-3.8,8.3h-14.4L825.6,862.2z M831.1,899.8
			c-1.9-4.3-4.1-9.7-5.1-13c-0.8,1.8-3.7,9.5-5.2,13H831.1z"/>
		<path class="st5" d="M905.1,897.2c0,12.8-8.7,21.2-23.7,21.2c-14.9,0-23.7-8.5-23.7-21.2V863h13.8v32.7c0,6.4,3.4,10.1,9.8,10.1
			c6.4,0,9.8-3.7,9.8-10.1V863h13.9V897.2z"/>
		<path class="st5" d="M931.4,864.6c2-1.3,6.7-2.7,12.2-2.7c13.2,0,21.2,8.1,21.2,19.7c0,9.4-6.4,16.8-12.2,24.2h14.6v11.6h-38.9
			c9.4-11.4,18.9-21.8,21.6-30.5c0.8-2,1-3.9,0.8-5.7c-0.4-4.2-3.7-6.7-8.9-6.7c-4.4,0-8.5,1.7-10.4,2.9V864.6z"/>
		<path class="st5" d="M1015.7,899.2c0,11-8.8,19.2-20.6,19.2c-11.6,0-20.2-8.3-20.2-19.9c0-14.4,12.2-29.2,20.8-35.6h16.9
			c-7.9,5.7-14.4,12.5-18.8,18.7c0.6-0.3,2-0.8,3.6-0.8C1008.4,880.8,1015.7,889.7,1015.7,899.2z M1003.2,899.2
			c0-4.7-3.4-8.2-8.2-8.2c-4.7,0-8.1,3.5-8.1,8.1c0,4.8,3.4,8.2,8.1,8.2C999.8,907.4,1003.2,903.9,1003.2,899.2z"/>
		<path class="st5" d="M1087.3,918.1l-27.9-24.6l-4.4-3.6v27.4h-13.5v-55.2h0.6l27.7,24.5c1.5,1.2,2.9,2.6,4.5,3.7V863h13.6v55.2
			H1087.3z"/>
		<path class="st5" d="M1127,861.9c16.8,0,28.8,12.6,28.8,28.3c0,15.8-11.9,28.3-28.8,28.3c-16.8,0-28.8-12.5-28.8-28.3
			C1098.2,874.6,1110.2,861.9,1127,861.9z M1127,905.8c8.8,0,14.8-7.2,14.8-15.6c0-8.4-6-15.6-14.8-15.6c-8.8,0-14.9,7.3-14.9,15.6
			C1112.1,898.6,1118.2,905.8,1127,905.8z"/>
		<path class="st5" d="M1185.3,918.1h-0.6l-27.7-55.2h15.2l7,15c2.3,5.1,4.5,10,5.8,13.9c0.8-1.8,4.2-10.2,5.9-13.9l7-15h15.1
			L1185.3,918.1z"/>
		<path class="st5" d="M1220.1,917.4V863h35.7v11.6h-21.8v9.7h18.7v11h-18.7v10.4h23v11.6H1220.1z"/>
		<path class="st5" d="M1284.1,892.7l-3.6-2.9v27.7h-13.2v-55.2h0.3l26.5,24.1l26.5-24.1h0.4v55.2h-13.3v-27.7l-3.5,2.9
			c-3.4,3.2-6.7,6.5-10.1,9.7C1290.8,899.2,1287.5,895.9,1284.1,892.7z"/>
		<path class="st5" d="M1376.2,901.2c0,11-9.1,16.2-22.1,16.2h-19.4V863h18.1c11.9,0,21.4,4.8,21.4,15.5c0,5.4-3.2,8.8-7,10.4
			C1371.8,890.2,1376.2,894.9,1376.2,901.2z M1353.4,885.2c1.5,0,2.9-0.2,4.2-0.8c1.6-0.7,2.6-2.3,2.6-4.7c0-4-2.9-5.7-6.7-5.7h-5.7
			v11.2H1353.4z M1347.8,906.3h7c3.7,0,7-1.8,7-6c0-4.3-3.2-6.1-6.7-6.1h-7.3V906.3z"/>
		<path class="st5" d="M1406.5,863c13,0,22,6.3,22,18.5c0,7.9-4,13.1-10,15.7l11,20.2h-14.4l-8.8-17.9h-6v17.9h-13.5V863H1406.5z
			 M1400.3,874.6v13.8h7c4.2,0,7.3-2,7.3-7c0-4.8-3.2-6.9-7.4-6.9H1400.3z"/>
		<path class="st5" d="M1439.7,917.4V863h35.7v11.6h-21.8v9.7h18.7v11h-18.7v10.4h23v11.6H1439.7z"/>
		<path class="st5" d="M1500.4,864.6c2-1.3,6.7-2.7,12.2-2.7c13.2,0,21.2,8.1,21.2,19.7c0,9.4-6.4,16.8-12.2,24.2h14.6v11.6h-38.9
			c9.4-11.4,18.9-21.8,21.6-30.5c0.8-2,1-3.9,0.8-5.7c-0.4-4.2-3.7-6.7-8.9-6.7c-4.4,0-8.5,1.7-10.4,2.9V864.6z"/>
		<path class="st5" d="M1565.9,861.9c14.1,0,22.8,12.6,22.8,28.3c0,15.6-8.8,28.3-22.8,28.3s-22.8-12.6-22.8-28.3
			C1543.1,874.5,1551.9,861.9,1565.9,861.9z M1565.9,905.8c5.7,0,8.8-6.3,8.8-15.6c0-9.3-3.1-15.6-8.8-15.6s-8.8,6.3-8.8,15.6
			C1557.1,899.5,1560.2,905.8,1565.9,905.8z"/>
		<path class="st5" d="M1595.9,864.6c2-1.3,6.7-2.7,12.2-2.7c13.2,0,21.2,8.1,21.2,19.7c0,9.4-6.4,16.8-12.2,24.2h14.6v11.6h-38.9
			c9.4-11.4,18.9-21.8,21.6-30.5c0.8-2,1-3.9,0.8-5.7c-0.4-4.2-3.7-6.7-8.9-6.7c-4.4,0-8.5,1.7-10.4,2.9V864.6z"/>
		<path class="st5" d="M1658.6,863v54.4h-13.8v-42.8h-7.3V863H1658.6z"/>
	</g>
</g>
</svg>
