<?xml version="1.0" encoding="utf-8"?>
<!-- Generator: Adobe Illustrator 25.0.0, SVG Export Plug-In . SVG Version: 6.00 Build 0)  -->
<svg version="1.1" id="Calque_1" xmlns="http://www.w3.org/2000/svg" xmlns:xlink="http://www.w3.org/1999/xlink" x="0px" y="0px"
	 viewBox="0 0 2282 1200" style="enable-background:new 0 0 2282 1200;" xml:space="preserve">
<style type="text/css">
	.st0{fill:#95C11F;}
	.st1{fill:#FFD618;}
	.st2{fill:#E6224E;}
	.st3{fill:#2DAFE6;}
</style>
<g>
	<polygon class="st0" points="546.7,237.5 234.3,495.8 546.7,495.8 	"/>
	<polygon class="st1" points="859.1,237.5 546.7,495.8 859.1,495.8 	"/>
	<rect x="546.7" y="808.2" class="st2" width="312.4" height="154.8"/>
	<circle class="st3" cx="702.9" cy="652" r="156.2"/>
	<path class="st0" d="M391.9,808.2c-85.5,0-154.8,69.3-154.8,154.8h309.6C546.7,877.5,477.4,808.2,391.9,808.2z"/>
	<rect x="234.3" y="495.8" class="st2" width="186.2" height="179.9"/>
	<polygon class="st1" points="420.5,495.8 420.5,675.7 234.3,675.7 234.3,808.2 546.7,808.2 546.7,495.8 	"/>
	<g>
		<polygon points="1124.3,430.1 1092.8,430.1 1092.8,554.3 1043.2,554.3 1043.2,430.1 1011.8,430.1 1011.8,585.8 1124.3,585.8 		"/>
		<rect x="1289.8" y="430.1" width="31.5" height="155.6"/>
		<polygon points="1379.2,461.6 1428.8,461.6 1428.8,585.8 1460.3,585.8 1460.3,430.1 1347.7,430.1 1347.7,585.8 1379.2,585.8 		"/>
		<polygon points="1263.4,492.2 1182.3,492.2 1182.3,461.6 1263.4,461.6 1263.4,430.1 1150.8,430.1 1150.8,523.7 1231.9,523.7 
			1231.9,554.3 1150.8,554.3 1150.8,585.8 1263.4,585.8 		"/>
		<polygon points="1599.3,554.3 1518.2,554.3 1518.2,523.7 1599.3,523.7 1599.3,492.2 1518.2,492.2 1518.2,461.6 1599.3,461.6 
			1599.3,430.1 1486.7,430.1 1486.7,585.8 1599.3,585.8 		"/>
		<polygon points="2049.1,840.1 2049.1,808.6 1936.5,808.6 1936.5,964.3 2049.1,964.3 2049.1,932.8 1968,932.8 1968,902.2 
			2049.1,902.2 2049.1,870.7 1968,870.7 1968,840.1 		"/>
		<rect x="1428.8" y="808.6" width="31.5" height="155.6"/>
		<rect x="1764.8" y="808.6" width="31.5" height="155.6"/>
		<polygon points="1567.8,897.4 1518.1,809.3 1517.7,808.6 1486.7,808.6 1486.7,964.3 1518.2,964.3 1518.2,875.5 1568,963.6 
			1568.4,964.3 1599.3,964.3 1599.3,808.6 1567.8,808.6 		"/>
		<path d="M1625.8,840.1h81.1v30.6h-81.1v93.6h112.6V808.6h-112.6V840.1z M1706.8,932.8h-49.6v-30.6h49.6V932.8z"/>
		<path d="M1011.8,964.3h112.6V808.6h-112.6V964.3z M1043.2,840.1h49.6v92.6h-49.6V840.1z"/>
		<path d="M1370.9,870.3h-81.1v94h112.6V808.6h-31.5V870.3z M1370.9,932.8h-49.6v-31h49.6V932.8z"/>
		<path d="M1263.4,902.2v-93.6h-112.6v155.6h31.5v-62.1h20.8l28.6,62.1h31.7l-28.6-62.1H1263.4z M1231.9,870.7h-49.6v-30.6h49.6
			V870.7z"/>
		<polygon points="1822.7,964.3 1854.2,964.3 1854.2,840.1 1910.1,840.1 1910.1,808.6 1822.7,808.6 		"/>
		<g>
			<polygon points="1323,775.2 1354.5,775.2 1354.5,651.1 1395.1,651.1 1395.1,619.6 1282.5,619.6 1282.5,651.1 1323,651.1 			"/>
			<path d="M1668.2,775.2V619.6h-112.6v155.6h31.5v-62.1h49.6v62.1H1668.2z M1587.1,681.7v-30.6h49.6v30.6H1587.1z"/>
			<path d="M1011.8,775.2h112.6v-31.5h-81.1v-30.6h81.1v-93.6h-112.6V775.2z M1043.2,651.1h49.6v30.6h-49.6V651.1z"/>
			<path d="M1529.2,775.2l-28.6-62.1h28.6v-93.6h-112.6v155.6h31.5v-62.1h20.8l28.6,62.1H1529.2z M1448.1,681.7v-30.6h49.6v30.6
				H1448.1z"/>
			<polygon points="1231.1,620.9 1207.1,666.3 1183,620.9 1149.5,620.9 1190.3,697.9 1150,774 1183.5,774 1207.1,729.5 1230.6,774 
				1264.1,774 1223.8,697.9 1264.6,620.9 			"/>
		</g>
		<g>
			<polygon points="950.3,929.3 938.8,929.3 938.8,951.1 923.2,951.1 923.2,925.3 911.5,925.3 911.5,965 976.7,965 976.7,951.1 
				950.3,951.1 			"/>
			<path d="M944.1,850.2c-18.8,0-33.8,14.5-33.8,34.1c0,19.7,15.1,34.1,33.8,34.1c19,0,33.8-14.4,33.8-34.1
				C978,864.5,963.1,850.2,944.1,850.2z M944.1,904.4c-11.6,0-21.1-8.3-21.1-20.1c0-11.8,9.5-20.1,21.1-20.1
				c11.7,0,21.1,8.3,21.1,20.1C965.2,896,955.8,904.4,944.1,904.4z"/>
			<polygon points="910.5,838 910.5,838.6 976.7,838.6 976.7,824.9 939.7,824.9 943.4,820.7 977.7,784.9 977.7,784.5 911.5,784.5 
				911.5,798.2 948.6,798.2 944.8,802.4 			"/>
			<path d="M911.5,748v20.8h65.2v-21c0-22.1-13.5-36-32.6-36S911.5,725.8,911.5,748z M965,748v6.9h-41.8v-6.7
				c0-14.1,9.1-22.4,20.9-22.4C956,725.8,965,734,965,748z"/>
			<path d="M910.5,678.9l66.2,31.6v-14.6l-11.5-5.1v-24.3l11.5-5.2v-14.6l-66.2,31.7V678.9z M955.4,670.7v15.9
				c-6.2-2.7-14.8-6.2-19.4-8.1C941.8,676.6,948.6,673.7,955.4,670.7z"/>
			<polygon points="911.5,649.4 923.2,649.4 923.2,631.2 976.7,631.2 976.7,617.3 923.2,617.3 923.2,599 911.5,599 			"/>
			<rect x="911.5" y="575.6" width="65.2" height="13.9"/>
			<path d="M944.1,495.8c-18.8,0-33.8,14.5-33.8,34.1c0,19.7,15.1,34.1,33.8,34.1c19,0,33.8-14.4,33.8-34.1
				C978,510.2,963.1,495.8,944.1,495.8z M944.1,550.1c-11.6,0-21.1-8.3-21.1-20.1c0-11.8,9.5-20.1,21.1-20.1
				c11.7,0,21.1,8.3,21.1,20.1C965.2,541.7,955.8,550.1,944.1,550.1z"/>
			<polygon points="976.7,470.6 939.7,470.6 943.4,466.3 977.7,430.6 977.7,430.1 911.5,430.1 911.5,443.9 948.6,443.9 944.8,448.1 
				910.5,483.7 910.5,484.3 976.7,484.3 			"/>
		</g>
	</g>
</g>
</svg>
